<svg id="visual" viewBox="0 0 960 300" width="960" height="300" xmlns="http://www.w3.org/2000/svg" xmlns:xlink="http://www.w3.org/1999/xlink" version="1.1"><rect x="0" y="0" width="960" height="300" fill="#FFFFFF"></rect><path d="M0 196L20 188.2C40 180.3 80 164.7 120 159.3C160 154 200 159 240 169.8C280 180.7 320 197.3 360 201.2C400 205 440 196 480 197.5C520 199 560 211 600 220.5C640 230 680 237 720 231.2C760 225.3 800 206.7 840 202.3C880 198 920 208 940 213L960 218L960 301L940 301C920 301 880 301 840 301C800 301 760 301 720 301C680 301 640 301 600 301C560 301 520 301 480 301C440 301 400 301 360 301C320 301 280 301 240 301C200 301 160 301 120 301C80 301 40 301 20 301L0 301Z" fill="#FFD2BB" stroke-linecap="round" stroke-linejoin="miter"></path></svg>